<mxfile host="app.diagrams.net" agent="Mozilla/5.0 (Windows NT 10.0; Win64; x64) AppleWebKit/537.36 (KHTML, like Gecko) Chrome/131.0.0.0 Safari/537.36 Edg/131.0.0.0" version="27.0.9">
  <diagram name="Page-1" id="2ca16b54-16f6-2749-3443-fa8db7711227">
    <mxGraphModel dx="49" dy="673" grid="1" gridSize="10" guides="1" tooltips="1" connect="1" arrows="1" fold="1" page="1" pageScale="1" pageWidth="1100" pageHeight="850" background="none" math="0" shadow="0">
      <root>
        <mxCell id="0" />
        <mxCell id="1" parent="0" />
        <mxCell id="7CDiE8nzM-AOpNd6Aqju-27" style="edgeStyle=orthogonalEdgeStyle;html=1;entryX=1;entryY=0.5;dashed=1;labelBackgroundColor=none;startArrow=ERmandOne;endArrow=ERzeroToMany;fontFamily=Verdana;fontSize=12;align=left;endSize=8;startSize=8;endFill=0;exitX=0.25;exitY=1;exitDx=0;exitDy=0;entryDx=0;entryDy=0;" edge="1" parent="1" source="7CDiE8nzM-AOpNd6Aqju-52" target="7CDiE8nzM-AOpNd6Aqju-55">
          <mxGeometry relative="1" as="geometry">
            <mxPoint x="1462.4999999999995" y="490" as="sourcePoint" />
            <mxPoint x="1350" y="590" as="targetPoint" />
          </mxGeometry>
        </mxCell>
        <mxCell id="7CDiE8nzM-AOpNd6Aqju-28" value="&lt;span&gt;participates in&lt;/span&gt;" style="edgeLabel;html=1;align=center;verticalAlign=middle;resizable=0;points=[];labelBackgroundColor=#FFFFFF;fontSize=13;" vertex="1" connectable="0" parent="7CDiE8nzM-AOpNd6Aqju-27">
          <mxGeometry x="-0.1716" y="-2" relative="1" as="geometry">
            <mxPoint x="-6" y="-28" as="offset" />
          </mxGeometry>
        </mxCell>
        <mxCell id="7CDiE8nzM-AOpNd6Aqju-29" style="edgeStyle=orthogonalEdgeStyle;html=1;labelBackgroundColor=none;startArrow=ERmandOne;endArrow=ERzeroToMany;fontFamily=Verdana;fontSize=12;align=left;exitX=0.75;exitY=0;exitDx=0;exitDy=0;endSize=8;startSize=8;endFill=0;entryX=0;entryY=0.5;entryDx=0;entryDy=0;" edge="1" parent="1" source="7CDiE8nzM-AOpNd6Aqju-52" target="7CDiE8nzM-AOpNd6Aqju-54">
          <mxGeometry relative="1" as="geometry">
            <mxPoint x="1729.9999999999995" y="350" as="targetPoint" />
            <mxPoint x="1527.4999999999995" y="440" as="sourcePoint" />
          </mxGeometry>
        </mxCell>
        <mxCell id="7CDiE8nzM-AOpNd6Aqju-30" value="&lt;span&gt;registers&lt;/span&gt;" style="edgeLabel;html=1;align=center;verticalAlign=middle;resizable=0;points=[];labelBackgroundColor=#FFFFFF;fontSize=13;" vertex="1" connectable="0" parent="7CDiE8nzM-AOpNd6Aqju-29">
          <mxGeometry x="-0.1346" y="-2" relative="1" as="geometry">
            <mxPoint x="30" y="-2" as="offset" />
          </mxGeometry>
        </mxCell>
        <mxCell id="7CDiE8nzM-AOpNd6Aqju-31" style="edgeStyle=orthogonalEdgeStyle;html=1;dashed=1;labelBackgroundColor=none;startArrow=ERoneToMany;endArrow=ERmandOne;fontFamily=Verdana;fontSize=12;align=left;startFill=0;endFill=0;endSize=8;startSize=8;exitX=1;exitY=0.5;exitDx=0;exitDy=0;entryX=0;entryY=0.5;entryDx=0;entryDy=0;" edge="1" parent="1" source="7CDiE8nzM-AOpNd6Aqju-52" target="7CDiE8nzM-AOpNd6Aqju-53">
          <mxGeometry relative="1" as="geometry">
            <mxPoint x="1620" y="510" as="sourcePoint" />
            <mxPoint x="1700" y="470" as="targetPoint" />
          </mxGeometry>
        </mxCell>
        <mxCell id="7CDiE8nzM-AOpNd6Aqju-32" value="belongs to" style="edgeLabel;html=1;align=center;verticalAlign=middle;resizable=0;points=[];fontSize=13;" vertex="1" connectable="0" parent="7CDiE8nzM-AOpNd6Aqju-31">
          <mxGeometry x="0.1905" y="1" relative="1" as="geometry">
            <mxPoint x="-20" y="1" as="offset" />
          </mxGeometry>
        </mxCell>
        <mxCell id="7CDiE8nzM-AOpNd6Aqju-34" style="edgeStyle=orthogonalEdgeStyle;html=1;entryX=0;entryY=0.5;dashed=1;labelBackgroundColor=none;startArrow=ERoneToMany;endArrow=ERmandOne;fontFamily=Verdana;fontSize=12;align=left;exitX=1;exitY=0.6;exitDx=0;exitDy=0;entryDx=0;entryDy=0;endFill=0;startFill=0;endSize=8;startSize=8;exitPerimeter=0;" edge="1" parent="1" source="7CDiE8nzM-AOpNd6Aqju-56" target="7CDiE8nzM-AOpNd6Aqju-59">
          <mxGeometry relative="1" as="geometry">
            <mxPoint x="1834.9999999999995" y="590" as="sourcePoint" />
            <mxPoint x="1979.9999999999995" y="590" as="targetPoint" />
          </mxGeometry>
        </mxCell>
        <mxCell id="7CDiE8nzM-AOpNd6Aqju-35" value="is owned by" style="edgeLabel;html=1;align=center;verticalAlign=middle;resizable=0;points=[];fontSize=13;" vertex="1" connectable="0" parent="7CDiE8nzM-AOpNd6Aqju-34">
          <mxGeometry x="-0.0844" y="1" relative="1" as="geometry">
            <mxPoint x="9" y="1" as="offset" />
          </mxGeometry>
        </mxCell>
        <mxCell id="7CDiE8nzM-AOpNd6Aqju-37" style="edgeStyle=orthogonalEdgeStyle;html=1;entryX=0;entryY=0.5;labelBackgroundColor=none;startArrow=ERoneToMany;endArrow=ERmandOne;fontFamily=Verdana;fontSize=12;align=left;entryDx=0;entryDy=0;startFill=0;endFill=0;dashed=1;endSize=8;startSize=8;exitX=1;exitY=0.5;exitDx=0;exitDy=0;" edge="1" parent="1" source="7CDiE8nzM-AOpNd6Aqju-51" target="7CDiE8nzM-AOpNd6Aqju-52">
          <mxGeometry relative="1" as="geometry">
            <mxPoint x="1310" y="465" as="sourcePoint" />
            <mxPoint x="1430" y="465" as="targetPoint" />
          </mxGeometry>
        </mxCell>
        <mxCell id="7CDiE8nzM-AOpNd6Aqju-38" value="has" style="edgeLabel;html=1;align=center;verticalAlign=middle;resizable=0;points=[];fontSize=13;" vertex="1" connectable="0" parent="7CDiE8nzM-AOpNd6Aqju-37">
          <mxGeometry x="-0.0879" y="2" relative="1" as="geometry">
            <mxPoint as="offset" />
          </mxGeometry>
        </mxCell>
        <mxCell id="7CDiE8nzM-AOpNd6Aqju-42" style="edgeStyle=orthogonalEdgeStyle;html=1;entryX=0;entryY=0.5;dashed=1;labelBackgroundColor=none;startArrow=ERmandOne;endArrow=ERzeroToMany;fontFamily=Verdana;fontSize=12;align=left;exitX=0.75;exitY=1;exitDx=0;exitDy=0;endSize=8;startSize=8;endFill=0;entryDx=0;entryDy=0;" edge="1" parent="1" source="7CDiE8nzM-AOpNd6Aqju-52" target="7CDiE8nzM-AOpNd6Aqju-56">
          <mxGeometry relative="1" as="geometry">
            <mxPoint x="1527.4999999999995" y="490" as="sourcePoint" />
            <mxPoint x="1684.9999999999995" y="590" as="targetPoint" />
          </mxGeometry>
        </mxCell>
        <mxCell id="7CDiE8nzM-AOpNd6Aqju-43" value="purchases" style="edgeLabel;html=1;align=center;verticalAlign=middle;resizable=0;points=[];fontSize=13;" vertex="1" connectable="0" parent="7CDiE8nzM-AOpNd6Aqju-42">
          <mxGeometry x="0.0449" y="4" relative="1" as="geometry">
            <mxPoint x="23" y="4" as="offset" />
          </mxGeometry>
        </mxCell>
        <mxCell id="7CDiE8nzM-AOpNd6Aqju-46" value="" style="edgeStyle=orthogonalEdgeStyle;html=1;endArrow=ERmandOne;startArrow=ERmandOne;labelBackgroundColor=none;fontFamily=Verdana;fontSize=12;align=left;exitX=1;exitY=0.5;entryX=0.25;entryY=0;entryDx=0;entryDy=0;exitDx=0;exitDy=0;dashed=1;endSize=8;startSize=8;endFill=0;" edge="1" parent="1" source="7CDiE8nzM-AOpNd6Aqju-58" target="7CDiE8nzM-AOpNd6Aqju-52">
          <mxGeometry width="100" height="100" relative="1" as="geometry">
            <mxPoint x="1280" y="360" as="sourcePoint" />
            <mxPoint x="1462.4999999999995" y="440" as="targetPoint" />
          </mxGeometry>
        </mxCell>
        <mxCell id="7CDiE8nzM-AOpNd6Aqju-47" value="is listed in" style="edgeLabel;html=1;align=center;verticalAlign=middle;resizable=0;points=[];fontSize=13;" vertex="1" connectable="0" parent="7CDiE8nzM-AOpNd6Aqju-46">
          <mxGeometry x="-0.0885" y="5" relative="1" as="geometry">
            <mxPoint x="-15" y="5" as="offset" />
          </mxGeometry>
        </mxCell>
        <mxCell id="7CDiE8nzM-AOpNd6Aqju-48" style="edgeStyle=orthogonalEdgeStyle;html=1;dashed=1;labelBackgroundColor=none;startArrow=ERoneToMany;endArrow=ERmandOne;fontFamily=Verdana;fontSize=12;align=left;exitX=1;exitY=0.5;exitDx=0;exitDy=0;endSize=8;startSize=8;endFill=0;startFill=0;entryX=0;entryY=0.5;entryDx=0;entryDy=0;" edge="1" parent="1" source="7CDiE8nzM-AOpNd6Aqju-53" target="7CDiE8nzM-AOpNd6Aqju-57">
          <mxGeometry relative="1" as="geometry">
            <mxPoint x="1849.9999999999995" y="465" as="sourcePoint" />
            <mxPoint x="1980" y="465" as="targetPoint" />
          </mxGeometry>
        </mxCell>
        <mxCell id="7CDiE8nzM-AOpNd6Aqju-49" value="&lt;span&gt;is located in&lt;/span&gt;" style="edgeLabel;html=1;align=center;verticalAlign=middle;resizable=0;points=[];labelBackgroundColor=#FFFFFF;fontSize=13;" vertex="1" connectable="0" parent="7CDiE8nzM-AOpNd6Aqju-48">
          <mxGeometry x="-0.1346" y="-2" relative="1" as="geometry">
            <mxPoint x="9" y="-2" as="offset" />
          </mxGeometry>
        </mxCell>
        <mxCell id="7CDiE8nzM-AOpNd6Aqju-51" value="&lt;div style=&quot;text-align: center; box-sizing: border-box; width: 100%; background: rgb(228, 228, 228); padding: 2px;&quot;&gt;&lt;span style=&quot;font-size: 14px;&quot;&gt;&lt;b&gt;EmploymentHistory&lt;/b&gt;&lt;/span&gt;&lt;/div&gt;&lt;table style=&quot;width:100%;font-size:1em;&quot; cellpadding=&quot;2&quot; cellspacing=&quot;0&quot;&gt;&lt;tbody&gt;&lt;tr&gt;&lt;td&gt;HistoryID[PK1]&lt;/td&gt;&lt;td&gt;&lt;br&gt;&lt;/td&gt;&lt;/tr&gt;&lt;/tbody&gt;&lt;/table&gt;" style="verticalAlign=top;align=left;overflow=fill;html=1;whiteSpace=wrap;rounded=0;shadow=0;comic=0;strokeColor=default;strokeWidth=1;fontFamily=Verdana;fontSize=12;fontColor=default;labelBackgroundColor=none;fillColor=default;" vertex="1" parent="1">
          <mxGeometry x="1120" y="440" width="185" height="50" as="geometry" />
        </mxCell>
        <mxCell id="7CDiE8nzM-AOpNd6Aqju-52" value="&lt;div style=&quot;text-align: center; box-sizing: border-box; width: 100%; background: rgb(228, 228, 228); padding: 2px;&quot;&gt;&lt;span style=&quot;font-size: 14px;&quot;&gt;&lt;b&gt;Employee&lt;/b&gt;&lt;/span&gt;&lt;/div&gt;&lt;table style=&quot;width:100%;font-size:1em;&quot; cellpadding=&quot;2&quot; cellspacing=&quot;0&quot;&gt;&lt;tbody&gt;&lt;tr&gt;&lt;td&gt;&lt;/td&gt;&lt;td&gt;EmployeeID[PK1]&lt;/td&gt;&lt;/tr&gt;&lt;tr&gt;&lt;td&gt;&lt;br&gt;&lt;/td&gt;&lt;td&gt;&lt;br&gt;&lt;/td&gt;&lt;/tr&gt;&lt;/tbody&gt;&lt;/table&gt;" style="verticalAlign=top;align=left;overflow=fill;html=1;whiteSpace=wrap;rounded=0;shadow=0;comic=0;strokeColor=default;strokeWidth=1;fontFamily=Verdana;fontSize=12;fontColor=default;labelBackgroundColor=none;fillColor=default;" vertex="1" parent="1">
          <mxGeometry x="1430" y="440" width="140" height="50" as="geometry" />
        </mxCell>
        <mxCell id="7CDiE8nzM-AOpNd6Aqju-53" value="&lt;div style=&quot;text-align: center; box-sizing: border-box; width: 100%; background: rgb(228, 228, 228); padding: 2px;&quot;&gt;&lt;font style=&quot;font-size: 14px;&quot;&gt;&lt;b&gt;Department&lt;/b&gt;&lt;/font&gt;&lt;/div&gt;&lt;table style=&quot;width:100%;font-size:1em;&quot; cellpadding=&quot;2&quot; cellspacing=&quot;0&quot;&gt;&lt;tbody&gt;&lt;tr&gt;&lt;td&gt;DepartmentID[PK1]&lt;/td&gt;&lt;td&gt;&lt;/td&gt;&lt;/tr&gt;&lt;/tbody&gt;&lt;/table&gt;" style="verticalAlign=top;align=left;overflow=fill;html=1;whiteSpace=wrap;rounded=0;shadow=0;comic=0;strokeColor=default;strokeWidth=1;fontFamily=Verdana;fontSize=12;fontColor=default;labelBackgroundColor=none;fillColor=default;" vertex="1" parent="1">
          <mxGeometry x="1720" y="440" width="140" height="50" as="geometry" />
        </mxCell>
        <mxCell id="7CDiE8nzM-AOpNd6Aqju-54" value="&lt;div style=&quot;text-align: center; box-sizing: border-box; width: 100%; background: rgb(228, 228, 228); padding: 2px;&quot;&gt;&lt;font style=&quot;font-size: 14px;&quot;&gt;&lt;b&gt;EmergencyContact&lt;/b&gt;&lt;/font&gt;&lt;/div&gt;&lt;table style=&quot;width:100%;font-size:1em;&quot; cellpadding=&quot;2&quot; cellspacing=&quot;0&quot;&gt;&lt;tbody&gt;&lt;tr&gt;&lt;td&gt;EmployeeID[PK1][FK]&lt;br&gt;ContactSequenece[PK2]&lt;/td&gt;&lt;td&gt;&lt;/td&gt;&lt;/tr&gt;&lt;/tbody&gt;&lt;/table&gt;" style="verticalAlign=top;align=left;overflow=fill;html=1;whiteSpace=wrap;rounded=0;shadow=0;comic=0;strokeColor=default;strokeWidth=1;fontFamily=Verdana;fontSize=12;fontColor=default;labelBackgroundColor=none;fillColor=default;" vertex="1" parent="1">
          <mxGeometry x="1770" y="335" width="180" height="65" as="geometry" />
        </mxCell>
        <mxCell id="7CDiE8nzM-AOpNd6Aqju-55" value="&lt;div style=&quot;text-align: center; box-sizing: border-box; width: 100%; background: rgb(228, 228, 228); padding: 2px;&quot;&gt;&lt;span style=&quot;font-size: 14px;&quot;&gt;&lt;b&gt;UnitedWayContribution&lt;/b&gt;&lt;/span&gt;&lt;/div&gt;&lt;table style=&quot;width:100%;font-size:1em;&quot; cellpadding=&quot;2&quot; cellspacing=&quot;0&quot;&gt;&lt;tbody&gt;&lt;tr&gt;&lt;td&gt;ContributionID[PK1]&lt;/td&gt;&lt;td&gt;&lt;br&gt;&lt;/td&gt;&lt;/tr&gt;&lt;/tbody&gt;&lt;/table&gt;" style="verticalAlign=top;align=left;overflow=fill;html=1;whiteSpace=wrap;rounded=0;shadow=0;comic=0;strokeColor=default;strokeWidth=1;fontFamily=Verdana;fontSize=12;fontColor=default;labelBackgroundColor=none;fillColor=default;" vertex="1" parent="1">
          <mxGeometry x="1120" y="565" width="210" height="50" as="geometry" />
        </mxCell>
        <mxCell id="7CDiE8nzM-AOpNd6Aqju-56" value="&lt;div style=&quot;text-align: center; box-sizing: border-box; width: 100%; background: rgb(228, 228, 228); padding: 2px;&quot;&gt;&lt;span style=&quot;font-size: 14px;&quot;&gt;&lt;b&gt;SavingsBond&lt;/b&gt;&lt;/span&gt;&lt;/div&gt;&lt;table style=&quot;width:100%;font-size:1em;&quot; cellpadding=&quot;2&quot; cellspacing=&quot;0&quot;&gt;&lt;tbody&gt;&lt;tr&gt;&lt;td&gt;BondID[PK1]&lt;/td&gt;&lt;td&gt;&lt;/td&gt;&lt;/tr&gt;&lt;/tbody&gt;&lt;/table&gt;" style="verticalAlign=top;align=left;overflow=fill;html=1;whiteSpace=wrap;rounded=0;shadow=0;comic=0;strokeColor=default;strokeWidth=1;fontFamily=Verdana;fontSize=12;fontColor=default;labelBackgroundColor=none;fillColor=default;" vertex="1" parent="1">
          <mxGeometry x="1690" y="560" width="145" height="50" as="geometry" />
        </mxCell>
        <mxCell id="7CDiE8nzM-AOpNd6Aqju-57" value="&lt;div style=&quot;box-sizing: border-box; width: 100%; background: rgb(228, 228, 228); padding: 2px; text-align: center;&quot;&gt;&lt;span style=&quot;font-size: 14px;&quot;&gt;&lt;b&gt;Site&lt;/b&gt;&lt;/span&gt;&lt;/div&gt;&lt;table style=&quot;width:100%;font-size:1em;&quot; cellpadding=&quot;2&quot; cellspacing=&quot;0&quot;&gt;&lt;tbody&gt;&lt;tr&gt;&lt;td&gt;SiteCode[PK1]&lt;/td&gt;&lt;td&gt;&lt;br&gt;&lt;/td&gt;&lt;/tr&gt;&lt;/tbody&gt;&lt;/table&gt;" style="verticalAlign=top;align=left;overflow=fill;html=1;whiteSpace=wrap;rounded=0;shadow=0;comic=0;strokeColor=default;strokeWidth=1;fontFamily=Verdana;fontSize=12;fontColor=default;labelBackgroundColor=none;fillColor=default;" vertex="1" parent="1">
          <mxGeometry x="1990" y="440" width="120" height="50" as="geometry" />
        </mxCell>
        <mxCell id="7CDiE8nzM-AOpNd6Aqju-58" value="&lt;div style=&quot;text-align: center; box-sizing: border-box; width: 100%; background: rgb(228, 228, 228); padding: 2px;&quot;&gt;&lt;font style=&quot;font-size: 14px;&quot;&gt;&lt;b&gt;TelephoneListing&lt;/b&gt;&lt;/font&gt;&lt;/div&gt;&amp;nbsp;ListingID[PK1]&lt;table style=&quot;width:100%;font-size:1em;&quot; cellpadding=&quot;2&quot; cellspacing=&quot;0&quot;&gt;&lt;tbody&gt;&lt;/tbody&gt;&lt;/table&gt;" style="verticalAlign=top;align=left;overflow=fill;html=1;whiteSpace=wrap;rounded=0;shadow=0;comic=0;strokeColor=default;strokeWidth=1;fontFamily=Verdana;fontSize=12;fontColor=default;labelBackgroundColor=none;fillColor=default;" vertex="1" parent="1">
          <mxGeometry x="1120" y="335" width="160" height="50" as="geometry" />
        </mxCell>
        <mxCell id="7CDiE8nzM-AOpNd6Aqju-59" value="&lt;div style=&quot;box-sizing: border-box; width: 100%; background: rgb(228, 228, 228); padding: 2px; text-align: center;&quot;&gt;&lt;span style=&quot;font-size: 14px;&quot;&gt;&lt;b&gt;BondOwner&lt;/b&gt;&lt;/span&gt;&lt;/div&gt;&lt;table style=&quot;width:100%;font-size:1em;&quot; cellpadding=&quot;2&quot; cellspacing=&quot;0&quot;&gt;&lt;tbody&gt;&lt;tr&gt;&lt;td&gt;OwnerSSN[PK1]&lt;/td&gt;&lt;td&gt;&lt;br&gt;&lt;/td&gt;&lt;/tr&gt;&lt;/tbody&gt;&lt;/table&gt;" style="verticalAlign=top;align=left;overflow=fill;html=1;whiteSpace=wrap;rounded=0;shadow=0;comic=0;strokeColor=default;strokeWidth=1;fontFamily=Verdana;fontSize=12;fontColor=default;labelBackgroundColor=none;fillColor=default;" vertex="1" parent="1">
          <mxGeometry x="1985" y="565" width="130" height="50" as="geometry" />
        </mxCell>
      </root>
    </mxGraphModel>
  </diagram>
</mxfile>
